<svg width="120" height="120" viewBox="0 0 120 120" fill="none" xmlns="http://www.w3.org/2000/svg">
    <g id="Frame 1">
        <g id="Blue">
            <path id="Blue_2" opacity="0.8" d="M53 55.268C54.3333 56.0378 54.3333 57.9623 53 58.7321L18.5 78.6506C17.1667 79.4204 15.5 78.4582 15.5 76.9186L15.5 37.0814C15.5 35.5418 17.1667 34.5796 18.5 35.3494L53 55.268Z" fill="#2D9CDB"/>
            <path id="Sea" opacity="0.8" d="M53 55.268C54.3333 56.0378 54.3333 57.9623 53 58.7321L18.5 78.6506C17.1667 79.4204 15.5 78.4582 15.5 76.9186L15.5 37.0814C15.5 35.5418 17.1667 34.5796 18.5 35.3494L53 55.268Z" fill="#56CCF2"/>
        </g>
        <path id="Orange" opacity="0.8" d="M72 55.268C73.3333 56.0378 73.3333 57.9623 72 58.7321L37.5 78.6506C36.1667 79.4204 34.5 78.4582 34.5 76.9186L34.5 37.0814C34.5 35.5418 36.1667 34.5796 37.5 35.3494L72 55.268Z" fill="#F2994A"/>
    </g>
</svg>
